<svg width="123" height="30" viewBox="0 0 123 30" fill="none" xmlns="http://www.w3.org/2000/svg">
<path d="M9.49994 16.957L21.1423 28.5997" stroke="#D44527" stroke-width="2" stroke-miterlimit="10"/>
<path d="M4.70004 28.5997H0C0.0144751 22.9948 2.24744 17.6236 6.21073 13.6603C10.174 9.69698 15.5452 7.46402 21.1502 7.44954V12.1888C16.7941 12.1888 12.6159 13.9165 9.53201 16.993C6.44814 20.0696 4.71041 24.2437 4.70004 28.5997ZM28.2002 13.0739C28.5292 11.5073 29.7669 10.6221 32.4538 10.6221C35.7203 10.6221 36.864 12.0556 36.864 14.5388V14.9461L30.0019 15.5571C25.0982 16.0036 21.957 18.2126 21.957 22.3017C21.957 27.0017 25.5055 29.2421 29.7904 29.2421C33.6679 29.2421 35.6341 27.8164 36.8405 26.1792V28.6311H41.9087V14.5309C42.0081 12.7472 41.4508 10.9888 40.342 9.58807C38.7753 7.70805 35.9318 6.76804 32.4616 6.76804C26.8607 6.76804 23.6334 9.25908 22.9832 13.0974L28.2002 13.0739ZM30.5737 25.3019C28.4509 25.3019 26.9782 24.2757 26.9782 22.239C26.9782 20.3982 28.2864 19.3328 30.1664 19.1761L36.8248 18.5573V19.3798C36.8248 23.2887 34.0439 25.3019 30.5737 25.3019ZM61.6645 28.5684H66.7327V0H61.6645V10.0111C60.4425 8.17023 58.2726 6.74454 55.0061 6.74454C48.6767 6.74454 45.1204 11.8519 45.1204 17.9776C45.1204 24.1033 48.6767 29.2186 55.0061 29.2186C58.2726 29.2186 60.4425 27.7929 61.6645 25.952V28.5684ZM61.8682 17.9463C61.8682 22.239 59.4163 25.0982 56.0323 25.0982C52.3898 25.0982 50.1886 22.4427 50.1886 17.9463C50.1886 13.4499 52.3898 10.7944 56.0323 10.7944C59.4163 10.8258 61.8682 13.6849 61.8682 17.9776V17.9463ZM71.3936 4.46502H76.4618V0H71.3936V4.46502ZM71.3936 28.5684H76.4618V7.35555H71.3936V28.5684ZM95.6223 28.5684H100.69V7.35555H95.6223V19.0351C95.6223 22.9518 93.4524 24.9572 90.3896 24.9572C87.3267 24.9572 85.9794 23.32 85.9794 20.2572V7.35555H80.9112V20.6723C80.9112 26.1557 84.0445 29.2499 89.1676 29.2499C92.0267 29.2499 94.3924 28.2316 95.6223 26.187V28.5684ZM114.007 20.3903C116.357 20.6723 117.924 20.9622 117.924 22.9205C117.924 24.4872 116.537 25.576 113.6 25.576C110.819 25.576 109.229 24.636 109.143 22.4427H103.996C104.161 26.4455 107.756 29.1794 113.6 29.1794C119.444 29.1794 123 26.5239 123 22.4427C123 17.4136 119.122 15.988 114.83 15.4945L113.404 15.3299C110.952 15.0479 109.487 14.3508 109.487 12.6744C109.487 11.4916 110.545 10.3244 113.529 10.3244C116.185 10.3244 117.446 11.5072 117.493 13.0583H122.6C122.358 9.9249 119.467 6.72888 113.616 6.72888C107.936 6.72888 104.419 9.25907 104.419 13.1444C104.419 17.7191 108.093 19.6775 112.589 20.1945L114.007 20.3903Z" fill="#242424"/>
</svg>
